<svg width="102" height="99" xmlns="http://www.w3.org/2000/svg"><path d="M51 1C23.392 1 1 23.387 1 51c0 22.092 14.325 40.833 34.196 47.446 2.496.462 3.304-1.088 3.304-2.404v-9.309c-13.908 3.025-16.804-5.9-16.804-5.9-2.275-5.779-5.554-7.316-5.554-7.316-4.538-3.105.346-3.038.346-3.038 5.02.35 7.662 5.154 7.662 5.154 4.458 7.642 11.696 5.434 14.55 4.154.446-3.229 1.742-5.437 3.175-6.683-11.104-1.27-22.78-5.558-22.78-24.712 0-5.463 1.955-9.921 5.15-13.421-.516-1.263-2.228-6.35.488-13.233 0 0 4.2-1.342 13.754 5.125A47.954 47.954 0 0 1 51 25.178c4.25.021 8.53.575 12.525 1.684 9.546-6.467 13.738-5.125 13.738-5.125 2.72 6.887 1.008 11.974.491 13.233 3.209 3.5 5.146 7.962 5.146 13.42 0 19.205-11.696 23.434-22.83 24.672 1.792 1.55 3.43 4.591 3.43 9.258v13.72c0 1.33.8 2.892 3.338 2.4C86.692 91.822 101 73.084 101 51c0-27.613-22.388-50-50-50z" fill="#f4f4f4" fill-rule="nonzero" stroke="#f4f4f4"/></svg>