<svg xmlns="http://www.w3.org/2000/svg" class="openmoji" viewBox="0 0 72 72"><g fill="none" stroke="#000" stroke-linecap="round" stroke-width="2"><path stroke-linejoin="round" d="M31.037 43.57a23.5 23.5 0 0 1-8.907 2.02 21 21 0 0 1-2.38-.11A27.6 27.6 0 0 1 8 41.14a20 20 0 0 1 9.698-4.035"/><path stroke-linejoin="round" d="M35.609 44.593a10.6 10.6 0 0 1-4.279 6.077q-.858.588-1.8 1.03c-5.42 2.61-12.96 2.43-12.96 2.43a11.36 11.36 0 0 1 3.18-8.65q1.186.125 2.38.11a23.5 23.5 0 0 0 8.907-2.02"/><path stroke-linejoin="round" d="M36.59 44.524a11 11 0 0 0 4.64 6.016q.891.565 1.86.98v.01C42.05 55.91 36 59 36 59s-5.18-2.95-6.47-7.3a13 13 0 0 0 1.8-1.03 10.6 10.6 0 0 0 4.276-6.07z"/><path stroke-linejoin="round" d="M36.781 45.07a10.95 10.95 0 0 0 4.449 5.47q.891.565 1.86.98v.01c5.57 2.47 13.08 2.1 13.08 2.1.02-3.24-1.31-6.341-3.67-8.56a11.4 11.4 0 0 0-1.56-1.19 15.9 15.9 0 0 0-3.447-1.603"/><path stroke-linejoin="round" d="M54.723 36.5c3.306.74 6.45 2.075 9.277 3.94a26.5 26.5 0 0 1-11.5 4.63 11.4 11.4 0 0 0-1.56-1.19 16.4 16.4 0 0 0-3.949-1.766M36.306 44.563s-19.302-2.45-19.302-11.03 2.895-14.706 3.86-15.932 6.756 4.902 6.756 7.353"/><path stroke-linejoin="round" d="M44.993 24.954c0-2.45 5.79-8.579 6.756-7.353s3.86 7.353 3.86 15.932-19.303 11.03-19.303 11.03"/><path stroke-miterlimit="10" d="M43.353 19.534s-4.698-6.317-7.047-6.317-7.047 6.317-7.047 6.317"/></g></svg>
